<?xml version="1.0" standalone="no"?><!DOCTYPE svg PUBLIC "-//W3C//DTD SVG 1.1//EN" "http://www.w3.org/Graphics/SVG/1.1/DTD/svg11.dtd"><svg t="1705813296874" class="icon" viewBox="0 0 1024 1024" version="1.1" xmlns="http://www.w3.org/2000/svg" p-id="35720" xmlns:xlink="http://www.w3.org/1999/xlink" width="200" height="200"><path d="M811.65 148.35A286.15 286.15 0 0 0 608 64H160a32 32 0 0 0-32 32v832a32 32 0 0 0 32 32h256a32 32 0 0 0 32-32V768h160a288 288 0 0 0 288-288V352a286.15 286.15 0 0 0-84.35-203.65zM608 128c123.51 0 224 100.49 224 224S731.51 576 608 576H416a32 32 0 0 0-32 32v288h-64V384h64v96a32 32 0 0 0 32 32h192c88.22 0 160-71.78 160-160s-71.78-160-160-160H192v-64z m-32 288a32 32 0 0 1-32 32h-96v-64h128zM192 256h416a96 96 0 0 1 27.87 187.87A95.78 95.78 0 0 0 640 416v-40a56.06 56.06 0 0 0-56-56H288a32 32 0 0 0-32 32v544h-64z m416 448H448v-64h160a286.15 286.15 0 0 0 203.65-84.35q5.7-5.7 11-11.67C795.08 636.42 709.29 704 608 704z" fill="#5C5C66" p-id="35721"></path></svg>